<svg width="70" height="72" viewBox="0 0 70 72" fill="none" xmlns="http://www.w3.org/2000/svg">
<rect width="70" height="72" fill="white"/>
<path d="M32.0833 12H11.6666C10.1195 12 8.63582 12.6321 7.54186 13.7574C6.44789 14.8826 5.83331 16.4087 5.83331 18V60C5.83331 61.5913 6.44789 63.1174 7.54186 64.2426C8.63582 65.3679 10.1195 66 11.6666 66H52.5C54.0471 66 55.5308 65.3679 56.6248 64.2426C57.7187 63.1174 58.3333 61.5913 58.3333 60V39M53.9583 7.50001C55.1186 6.30653 56.6924 5.63605 58.3333 5.63605C59.9743 5.63605 61.548 6.30653 62.7083 7.50001C63.8686 8.69348 64.5205 10.3122 64.5205 12C64.5205 13.6878 63.8686 15.3065 62.7083 16.5L35 45L23.3333 48L26.25 36L53.9583 7.50001Z" stroke="#757575" stroke-width="4" stroke-linecap="round" stroke-linejoin="round"/>
</svg>
