<svg width="33" height="32" viewBox="0 0 33 32" fill="none" xmlns="http://www.w3.org/2000/svg">
<g clip-path="url(#clip0_32_174)">
<path d="M12.5 25.3333C5.83335 27.3333 5.83335 22 3.16669 21.3333M21.8334 29.3333V24.1733C21.8834 23.5375 21.7975 22.8984 21.5814 22.2984C21.3653 21.6984 21.0239 21.1512 20.58 20.6933C24.7667 20.2267 29.1667 18.64 29.1667 11.36C29.1663 9.49843 28.4503 7.70826 27.1667 6.36C27.7745 4.73134 27.7315 2.93113 27.0467 1.33333C27.0467 1.33333 25.4734 0.866665 21.8334 3.30666C18.7774 2.47843 15.556 2.47843 12.5 3.30666C8.86002 0.866665 7.28669 1.33333 7.28669 1.33333C6.60186 2.93113 6.55888 4.73134 7.16669 6.36C5.87352 7.71826 5.15672 9.52462 5.16669 11.4C5.16669 18.6267 9.56669 20.2133 13.7534 20.7333C13.3147 21.1866 12.9764 21.7272 12.7604 22.3199C12.5445 22.9126 12.4558 23.5441 12.5 24.1733V29.3333" stroke="#1E1E1E" stroke-width="3" stroke-linecap="round" stroke-linejoin="round"/>
</g>
<defs>
<clipPath id="clip0_32_174">
<rect width="32" height="32" fill="white" transform="translate(0.5)"/>
</clipPath>
</defs>
</svg>
