<svg width="59" height="70" viewBox="0 0 59 70" fill="none" xmlns="http://www.w3.org/2000/svg">
<path d="M50.2772 29.1171H8.7233C8.22569 29.1171 7.82257 28.6373 7.82257 28.0438C7.82257 27.4509 8.22521 26.9705 8.7233 26.9705H50.2772C50.7748 26.9705 51.1779 27.4503 51.1779 28.0438C51.1779 28.6373 50.7748 29.1171 50.2772 29.1171Z" fill="#757575"/>
<path d="M50.0923 36.1289H8.53835C8.04074 36.1289 7.63762 35.6491 7.63762 35.0556C7.63762 34.4627 8.04026 33.9823 8.53835 33.9823H50.0923C50.5899 33.9823 50.993 34.4621 50.993 35.0556C50.993 35.6486 50.5899 36.1289 50.0923 36.1289Z" fill="#757575"/>
<path d="M50.2772 60.7911H8.7233C8.22569 60.7911 7.82257 60.3114 7.82257 59.7178C7.82257 59.1249 8.22521 58.6445 8.7233 58.6445H50.2772C50.7748 58.6445 51.1779 59.1243 51.1779 59.7178C51.1779 60.3114 50.7748 60.7911 50.2772 60.7911Z" fill="#757575"/>
<path d="M16.7397 53.4375H9.68539C8.65884 53.4375 7.82454 52.4429 7.82454 51.2201V42.8143C7.82454 41.591 8.65926 40.5969 9.68539 40.5969H16.7397C17.7662 40.5969 18.6005 41.5915 18.6005 42.8143V51.2201C18.6005 52.4428 17.7658 53.4375 16.7397 53.4375ZM9.68539 42.743L9.62556 51.2201L16.7397 51.2914L16.7995 42.8143C16.7995 42.7752 16.7724 42.743 16.7397 42.743H9.68539Z" fill="#757575"/>
<path d="M33.0265 53.4375H25.9722C24.9456 53.4375 24.1113 52.4429 24.1113 51.2201V42.8143C24.1113 41.591 24.9461 40.5969 25.9722 40.5969H33.0265C34.053 40.5969 34.8873 41.5915 34.8873 42.8143V51.2201C34.8873 52.4428 34.0531 53.4375 33.0265 53.4375ZM25.9722 42.743L25.9123 51.2201L33.0264 51.2914L33.0863 42.8143C33.0863 42.7752 33.0592 42.743 33.0264 42.743H25.9722Z" fill="#757575"/>
<path d="M49.3145 53.4375H42.2602C41.2346 53.4375 40.4003 52.4429 40.4003 51.2201V42.8143C40.4003 41.591 41.2351 40.5969 42.2602 40.5969H49.3145C50.341 40.5969 51.1753 41.5915 51.1753 42.8143V51.2201C51.1753 52.4428 50.3406 53.4375 49.3145 53.4375ZM42.2602 42.743L42.2013 51.2201L49.3146 51.2914L49.3744 42.8143C49.3744 42.7752 49.3473 42.743 49.3146 42.743H42.2602Z" fill="#757575"/>
<path d="M55.5852 69.2108H3.40641C1.90596 69.2108 0.685211 67.7562 0.685211 65.9682V4.06863C0.685211 2.2807 1.90596 0.82605 3.40641 0.82605H55.5852C57.0927 0.82605 58.3187 2.2807 58.3187 4.06863V65.9682C58.3187 67.7562 57.0927 69.2108 55.5852 69.2108ZM3.40641 2.97319C2.89883 2.97319 2.48669 3.46485 2.48669 4.06912L2.48622 65.9687C2.48622 66.5736 2.89883 67.0647 3.40593 67.0647H55.5847C56.0989 67.0647 56.5173 66.5736 56.5173 65.9687V4.06912C56.5173 3.47503 56.0909 2.97319 55.5852 2.97319H3.40641Z" fill="#757575"/>
<path d="M57.4111 22.6789H1.58209C1.08448 22.6789 0.681366 22.1991 0.681366 21.6056C0.681366 21.0126 1.08401 20.5323 1.58209 20.5323H57.4111C57.9087 20.5323 58.3118 21.0121 58.3118 21.6056C58.3118 22.1985 57.9092 22.6789 57.4111 22.6789Z" fill="#757575"/>
<path d="M18.8924 15.6845C17.0524 15.6845 15.5559 13.9006 15.5559 11.7087C15.5559 9.51626 17.0529 7.73297 18.8924 7.73297C20.7323 7.73297 22.2289 9.51684 22.2289 11.7087C22.2289 13.9006 20.7323 15.6845 18.8924 15.6845ZM18.8924 9.87837C18.0453 9.87837 17.3568 10.6988 17.3568 11.7082C17.3568 12.7175 18.0453 13.5379 18.8924 13.5379C19.7532 13.5379 20.428 12.734 20.428 11.7082C20.428 10.6994 19.7395 9.87837 18.8924 9.87837Z" fill="#757575"/>
<path d="M28.6372 15.6845C26.7973 15.6845 25.3007 13.9006 25.3007 11.7087C25.3007 9.51626 26.7978 7.73297 28.6372 7.73297C30.4772 7.73297 31.9737 9.51684 31.9737 11.7087C31.9737 13.9006 30.4767 15.6845 28.6372 15.6845ZM28.6372 9.87837C27.7901 9.87837 27.1016 10.6988 27.1016 11.7082C27.1016 12.7175 27.7901 13.5379 28.6372 13.5379C29.498 13.5379 30.1728 12.734 30.1728 11.7082C30.1728 10.6994 29.4838 9.87837 28.6372 9.87837Z" fill="#757575"/>
<path d="M49.8457 15.6845H38.3827C36.5428 15.6845 35.0462 13.9006 35.0462 11.7087C35.0462 9.51626 36.5432 7.73297 38.3827 7.73297H49.8457C51.6856 7.73297 53.1822 9.51684 53.1822 11.7087C53.1827 13.9006 51.6856 15.6845 49.8457 15.6845ZM38.3827 9.87837C37.5219 9.87837 36.8471 10.6824 36.8471 11.7082C36.8471 12.7175 37.5356 13.5379 38.3827 13.5379H49.8457C50.6928 13.5379 51.3813 12.7175 51.3813 11.7082C51.3813 10.6824 50.7066 9.87837 49.8457 9.87837H38.3827Z" fill="#757575"/>
<path d="M9.14631 15.6845C7.30637 15.6845 5.80981 13.9006 5.80981 11.7087C5.80981 9.51626 7.30685 7.73297 9.14631 7.73297C10.9862 7.73297 12.4828 9.51684 12.4828 11.7087C12.4833 13.9006 10.9862 15.6845 9.14631 15.6845ZM9.14631 9.87837C8.29923 9.87837 7.61074 10.6988 7.61074 11.7082C7.61074 12.7175 8.29922 13.5379 9.14631 13.5379C10.0071 13.5379 10.6819 12.734 10.6819 11.7082C10.6819 10.6994 9.99339 9.87837 9.14631 9.87837Z" fill="#757575"/>
</svg>
